<?xml version="1.0" encoding="UTF-8" standalone="no"?><!-- Generator: Gravit.io --><svg xmlns="http://www.w3.org/2000/svg" xmlns:xlink="http://www.w3.org/1999/xlink" style="isolation:isolate" viewBox="0 0 500 500" width="500pt" height="500pt"><defs><clipPath id="_clipPath_FZ7rXQ1lh6rYPYyzFLhXrSn8ppjdlS73"><rect width="500" height="500"/></clipPath></defs><g clip-path="url(#_clipPath_FZ7rXQ1lh6rYPYyzFLhXrSn8ppjdlS73)"><path d="M 35 0 L 465 0 C 484.317 0 500 15.683 500 35 L 500 465 C 500 484.317 484.317 500 465 500 L 35 500 C 15.683 500 0 484.317 0 465 L 0 35 C 0 15.683 15.683 0 35 0 Z" style="stroke:none;fill:#FFFFFF;stroke-miterlimit:10;"/><g><g><path d=" M 138.223 300.865 C 138.223 323.157 120.012 341.368 97.719 341.368 C 75.427 341.368 57.216 323.157 57.216 300.865 C 57.216 278.572 75.427 260.361 97.719 260.361 L 138.223 260.361 L 138.223 300.865 Z " fill="rgb(224,30,90)"/><path d=" M 158.632 300.865 C 158.632 278.572 176.843 260.361 199.135 260.361 C 221.428 260.361 239.639 278.572 239.639 300.865 L 239.639 402.281 C 239.639 424.573 221.428 442.784 199.135 442.784 C 176.843 442.784 158.632 424.573 158.632 402.281 L 158.632 300.865 Z " fill="rgb(224,30,90)"/></g><g><path d=" M 199.135 138.223 C 176.843 138.223 158.632 120.012 158.632 97.719 C 158.632 75.427 176.843 57.216 199.135 57.216 C 221.428 57.216 239.639 75.427 239.639 97.719 L 239.639 138.223 L 199.135 138.223 Z " fill="rgb(54,197,240)"/><path d=" M 199.135 158.632 C 221.428 158.632 239.639 176.843 239.639 199.135 C 239.639 221.428 221.428 239.639 199.135 239.639 L 97.719 239.639 C 75.427 239.639 57.216 221.428 57.216 199.135 C 57.216 176.843 75.427 158.632 97.719 158.632 L 199.135 158.632 Z " fill="rgb(54,197,240)"/></g><g><path d=" M 361.777 199.135 C 361.777 176.843 379.988 158.632 402.281 158.632 C 424.573 158.632 442.784 176.843 442.784 199.135 C 442.784 221.428 424.573 239.639 402.281 239.639 L 361.777 239.639 L 361.777 199.135 Z " fill="rgb(46,182,125)"/><path d=" M 341.368 199.135 C 341.368 221.428 323.157 239.639 300.865 239.639 C 278.572 239.639 260.361 221.428 260.361 199.135 L 260.361 97.719 C 260.361 75.427 278.572 57.216 300.865 57.216 C 323.157 57.216 341.368 75.427 341.368 97.719 L 341.368 199.135 Z " fill="rgb(46,182,125)"/></g><g><path d=" M 300.865 361.777 C 323.157 361.777 341.368 379.988 341.368 402.281 C 341.368 424.573 323.157 442.784 300.865 442.784 C 278.572 442.784 260.361 424.573 260.361 402.281 L 260.361 361.777 L 300.865 361.777 Z " fill="rgb(236,178,46)"/><path d=" M 300.865 341.368 C 278.572 341.368 260.361 323.157 260.361 300.865 C 260.361 278.572 278.572 260.361 300.865 260.361 L 402.281 260.361 C 424.573 260.361 442.784 278.572 442.784 300.865 C 442.784 323.157 424.573 341.368 402.281 341.368 L 300.865 341.368 Z " fill="rgb(236,178,46)"/></g></g></g></svg>